<svg width="18" height="16" viewBox="0 0 18 16" fill="none" xmlns="http://www.w3.org/2000/svg">
<path d="M10.0546 1.92487L10.0544 1.92511L9.3618 2.65009L9.00026 3.02856L8.63871 2.65009L7.94615 1.9251L7.94558 1.92451C6.34229 0.240607 3.77589 -0.00035902 2.07508 1.47191C0.0866844 3.19608 -0.0206439 6.30222 1.76173 8.1741L8.56403 15.3094C8.56406 15.3094 8.56409 15.3094 8.56412 15.3095C8.80655 15.5635 9.19045 15.5635 9.43288 15.3095C9.43291 15.3094 9.43294 15.3094 9.43297 15.3094L16.2355 8.17388L16.2356 8.17378C18.021 6.30198 17.9138 3.19621 15.9256 1.47204L10.0546 1.92487ZM10.0546 1.92487C11.6617 0.240287 14.2249 -0.000196475 15.9255 1.47198L10.0546 1.92487Z" stroke="black"/>
</svg>
