<svg width="25" height="25" viewBox="0 0 25 25" fill="none" xmlns="http://www.w3.org/2000/svg">
<path d="M19.1257 14.3256C19.13 13.1689 18.825 12.0322 18.2423 11.0331C17.6595 10.034 16.8203 9.20887 15.8114 8.64322C14.8025 8.07757 13.6607 7.79196 12.5043 7.81597C11.348 7.83999 10.219 8.17277 9.23452 8.77982C8.25 9.38688 7.44569 10.2461 6.90494 11.2686C6.36418 12.291 6.10664 13.4394 6.15899 14.5949C6.21135 15.7503 6.57169 16.8708 7.20269 17.8401C7.83369 18.8095 8.7124 19.5925 9.74779 20.108V23.2957C9.75262 23.4842 9.8309 23.6633 9.96593 23.7949C10.101 23.9265 10.2821 24.0001 10.4706 24H14.8074C14.9959 24.0001 15.177 23.9265 15.3121 23.7949C15.4471 23.6633 15.5254 23.4842 15.5302 23.2957V20.0524C16.5982 19.5208 17.4989 18.7049 18.1332 17.6945C18.7675 16.6842 19.111 15.5185 19.1257 14.3256V14.3256Z" stroke="#000001" stroke-linecap="round" stroke-linejoin="round"/>
<path d="M12.639 1V3.78002" stroke="#000001" stroke-linecap="round" stroke-linejoin="round"/>
<path d="M20.0523 3.65027L18.0878 5.63335" stroke="#000001" stroke-linecap="round" stroke-linejoin="round"/>
<path d="M24.278 9.39566H21.498" stroke="#000001" stroke-linecap="round" stroke-linejoin="round"/>
<path d="M5.22571 3.65027L7.19025 5.63335" stroke="#000001" stroke-linecap="round" stroke-linejoin="round"/>
<path d="M1 9.39566H3.78002" stroke="#000001" stroke-linecap="round" stroke-linejoin="round"/>
</svg>
