<svg width="53" height="53" viewBox="0 0 53 53" fill="none" xmlns="http://www.w3.org/2000/svg">
<circle cx="26.5" cy="26.5" r="26.5" fill="#4504FF" fill-opacity="0.2"/>
<path d="M23.6867 38.1611L17.3434 39.5759L18.4006 31.6112L32.6308 14.0311C32.8274 13.7856 33.0612 13.5907 33.3189 13.4577C33.5765 13.3246 33.8529 13.2562 34.132 13.2562C34.4112 13.2562 34.6875 13.3246 34.9452 13.4577C35.2029 13.5907 35.4367 13.7856 35.6333 14.0311L37.8746 16.8083C38.0728 17.0519 38.2301 17.3417 38.3374 17.6609C38.4448 17.9802 38.5001 18.3226 38.5001 18.6685C38.5001 19.0144 38.4448 19.3568 38.3374 19.6761C38.2301 19.9954 38.0728 20.2851 37.8746 20.5287L23.6867 38.1611Z" fill="#4504FF" fill-opacity="0.2" stroke="#000001" stroke-linecap="round" stroke-linejoin="round"/>
</svg>
