<svg width="20" height="21" viewBox="0 0 20 21" fill="none" xmlns="http://www.w3.org/2000/svg">
<path d="M9.94245 13.2295C11.7319 13.2295 13.1825 11.7789 13.1825 9.98954C13.1825 8.20014 11.7319 6.74954 9.94245 6.74954C8.15305 6.74954 6.70245 8.20014 6.70245 9.98954C6.70245 11.7789 8.15305 13.2295 9.94245 13.2295Z" stroke="#000001" stroke-linecap="round" stroke-linejoin="round"/>
<path d="M15.7024 19.7095C15.1573 18.6518 14.3314 17.7646 13.3154 17.1452C12.2993 16.5258 11.1324 16.1982 9.94243 16.1982C8.75249 16.1982 7.58552 16.5258 6.56948 17.1452C5.55344 17.7646 4.72758 18.6518 4.18243 19.7095" stroke="#000001" stroke-linecap="round" stroke-linejoin="round"/>
<path d="M17.1424 15.476C18.1643 14.1431 18.7928 12.5509 18.9569 10.8794C19.121 9.20796 18.8142 7.52392 18.071 6.01776C17.3279 4.51161 16.1782 3.24345 14.7518 2.3567C13.3255 1.46995 11.6795 1 10 1C8.32049 1 6.6745 1.46995 5.24817 2.3567C3.82184 3.24345 2.67209 4.51161 1.92896 6.01776C1.18582 7.52392 0.878962 9.20796 1.04307 10.8794C1.20719 12.5509 1.83573 14.1431 2.8576 15.476" stroke="#000001" stroke-linecap="round" stroke-linejoin="round"/>
</svg>
